<?xml version="1.0" encoding="UTF-8" standalone="no"?>
<svg
   xmlns:dc="http://purl.org/dc/elements/1.1/"
   xmlns:cc="http://creativecommons.org/ns#"
   xmlns:rdf="http://www.w3.org/1999/02/22-rdf-syntax-ns#"
   xmlns:svg="http://www.w3.org/2000/svg"
   xmlns="http://www.w3.org/2000/svg"
   xmlns:sodipodi="http://sodipodi.sourceforge.net/DTD/sodipodi-0.dtd"
   xmlns:inkscape="http://www.inkscape.org/namespaces/inkscape"
   data-name="Слой 1"
   viewBox="0 0 100 125"
   x="0px"
   y="0px"
   version="1.1"
   id="svg26"
   sodipodi:docname="noun_Tail or Stop Light_1488193.svg"
   inkscape:version="0.92.5 (2060ec1f9f, 2020-04-08)">
  <metadata
     id="metadata32">
    <rdf:RDF>
      <cc:Work
         rdf:about="">
        <dc:format>image/svg+xml</dc:format>
        <dc:type
           rdf:resource="http://purl.org/dc/dcmitype/StillImage" />
        <dc:title>Tail-Stop-Light-Out-brake</dc:title>
      </cc:Work>
    </rdf:RDF>
  </metadata>
  <defs
     id="defs30" />
  <sodipodi:namedview
     pagecolor="#ffffff"
     bordercolor="#666666"
     borderopacity="1"
     objecttolerance="10"
     gridtolerance="10"
     guidetolerance="10"
     inkscape:pageopacity="0"
     inkscape:pageshadow="2"
     inkscape:window-width="1076"
     inkscape:window-height="721"
     id="namedview28"
     showgrid="false"
     inkscape:zoom="1.888"
     inkscape:cx="103.70763"
     inkscape:cy="62.5"
     inkscape:window-x="0"
     inkscape:window-y="0"
     inkscape:window-maximized="0"
     inkscape:current-layer="svg26" />
  <title
     id="title2">Tail-Stop-Light-Out-brake</title>
  <path
     d="m 37.17,58.909997 a 2.5,2.5 0 0 0 -2.5,2.5 v 11.91 a 2.5,2.5 0 0 0 5,0 v -11.91 a 2.5,2.5 0 0 0 -2.5,-2.5 z"
     id="path4"
     inkscape:connector-curvature="0"
     style="fill:#ffffff" />
  <path
     d="m 62.83,59.629997 a 2.5,2.5 0 0 0 -2.5,2.5 v 11.19 a 2.5,2.5 0 0 0 5,0 v -11.19 a 2.5,2.5 0 0 0 -2.5,-2.5 z"
     id="path6"
     inkscape:connector-curvature="0"
     style="fill:#ffffff" />
  <path
     d="m 75.31,49.729997 h -1.6 v -13.49 c 0,-10.61 -6.79,-17.74 -16.89,-17.74 H 43.18 c -9.18,0 -16.89,8.12 -16.89,17.74 v 14.13 h -1.6 a 2.5,2.5 0 1 0 0,5 h 1.6 v 32.51 c 0,7.07 5.25,12.830003 11.5,15.420003 a 13.72,13.72 0 0 0 6.21,1.48 h 12 a 13.72,13.72 0 0 0 6.22,-1.48 c 6.25,-2.59 11.5,-8.350003 11.5,-15.420003 v -33.15 h 1.6 a 2.5,2.5 0 1 0 0,-5 z m -44,-13.49 c -0.02,-6.74 5.54,-12.74 11.87,-12.74 h 13.64 c 7.45,0 11.89,4.76 11.89,12.74 v 13.49 H 68.4 a 12.78,12.78 0 0 0 -12.4,-9.84 H 44 a 12.78,12.78 0 0 0 -12.54,10.48 h -0.17 z m 32.43,15.91 -1.94,4.26 a 12.69,12.69 0 0 0 -5.8,-1.41 H 44 a 12.69,12.69 0 0 0 -5.81,1.4 l -1.94,-4.26 a 7.78,7.78 0 0 1 7.75,-7.25 h 12 a 7.78,7.78 0 0 1 7.74,7.26 z m -18.87,47.63 a 13.74,13.74 0 0 1 -5,-1 6.52,6.52 0 0 1 -3.59,-5 l 1.88,-3.63 a 13.8,13.8 0 0 0 5.84,1.29 h 12 a 13.81,13.81 0 0 0 5.86,-1.3 l 1.88,3.63 a 6.52,6.52 0 0 1 -3.59,5 13.74,13.74 0 0 1 -5,1 z m 23.84,-11.9 a 9.42,9.42 0 0 1 -0.65,3.39 l -3,-5.81 a 2.5,2.5 0 0 0 -3.77,-0.81 8.53,8.53 0 0 1 -5.29,1.79 H 44 a 8.54,8.54 0 0 1 -5.3,-1.79 2.5,2.5 0 0 0 -3.78,0.81 l -3,5.81 a 9.42,9.42 0 0 1 -0.65,-3.39 v -32.51 h 0.95 l 2.65,5.81 a 2.5,2.5 0 0 0 3.95,0.82 7.73,7.73 0 0 1 5.18,-2 h 12 a 7.74,7.74 0 0 1 5.18,2 2.5,2.5 0 0 0 3.95,-0.82 l 2.94,-6.45 h 0.65 z"
     id="path8"
     inkscape:connector-curvature="0"
     style="opacity:1;vector-effect:none;fill:#ffffff;fill-opacity:1;stroke-width:1;stroke-linecap:butt;stroke-linejoin:miter;stroke-miterlimit:4;stroke-dasharray:none;stroke-dashoffset:0;stroke-opacity:1" />
  <path
     d="m 13.53,104.61 a 2.5,2.5 0 0 1 -1.34,-4.610003 l 6.89,-4.37 a 2.5,2.5 0 1 1 2.68,4.22 L 14.87,104.22 a 2.49,2.49 0 0 1 -1.34,0.39 z"
     id="path10"
     inkscape:connector-curvature="0"
     style="fill:#ffffff" />
  <path
     d="m 20.17,112.5 a 2.5,2.5 0 0 1 -1.84,-4.19 l 5.52,-6 a 2.5,2.5 0 1 1 3.68,3.38 l -5.52,6 a 2.49,2.49 0 0 1 -1.84,0.81 z"
     id="path12"
     inkscape:connector-curvature="0"
     style="fill:#ffffff" />
  <path
     d="m 28.63,118.5 a 2.5,2.5 0 0 1 -2.21,-3.66 l 3.78,-7.23 a 2.500365,2.500365 0 0 1 4.43,2.32 l -3.78,7.23 a 2.5,2.5 0 0 1 -2.22,1.34 z"
     id="path14"
     inkscape:connector-curvature="0"
     style="fill:#ffffff" />
  <path
     d="m 86.47,104.61 a 2.49,2.49 0 0 1 -1.34,-0.39 l -6.89,-4.370003 a 2.5,2.5 0 1 1 2.68,-4.22 l 6.89,4.37 A 2.5,2.5 0 0 1 86.47,104.61 Z"
     id="path16"
     inkscape:connector-curvature="0"
     style="fill:#ffffff" />
  <path
     d="M 79.83,112.5 A 2.49,2.49 0 0 1 78,111.74 l -5.52,-6 a 2.5,2.5 0 1 1 3.68,-3.38 l 5.52,6 a 2.5,2.5 0 0 1 -1.85,4.14 z"
     id="path18"
     inkscape:connector-curvature="0"
     style="fill:#ffffff" />
  <path
     d="m 71.37,118.5 a 2.5,2.5 0 0 1 -2.22,-1.34 l -3.78,-7.23 a 2.500365,2.500365 0 0 1 4.43,-2.32 l 3.78,7.23 a 2.5,2.5 0 0 1 -2.21,3.66 z"
     id="path20"
     inkscape:connector-curvature="0"
     style="fill:#ffffff" />
  <path
     d="m 148.2278,58.62999 a 2.5,2.5 0 0 0 -2.5,2.5 v 11.91 a 2.5,2.5 0 0 0 5,0 v -11.91 a 2.5,2.5 0 0 0 -2.5,-2.5 z"
     id="path4-6"
     inkscape:connector-curvature="0" />
  <path
     d="m 173.8878,59.34999 a 2.5,2.5 0 0 0 -2.5,2.5 v 11.19 a 2.5000005,2.5000005 0 0 0 5,0 v -11.19 a 2.5,2.5 0 0 0 -2.5,-2.5 z"
     id="path6-2"
     inkscape:connector-curvature="0" />
  <path
     d="m 186.3678,49.44999 h -1.6 V 35.959986 c 0,-10.61 -6.79,-17.74 -16.89,-17.74 h -13.64 c -9.18,0 -16.89,8.12 -16.89,17.74 V 50.08999 h -1.6 a 2.5,2.5 0 1 0 0,5 h 1.6 v 32.51 c 0,7.07 5.25,12.83 11.5,15.42 a 13.72,13.72 0 0 0 6.21,1.48 h 12 a 13.72,13.72 0 0 0 6.22,-1.48 c 6.25,-2.59 11.5,-8.35 11.5,-15.42 v -33.15 h 1.6 a 2.5,2.5 0 1 0 0,-5 z m -44,-13.490004 c -0.02,-6.74 5.54,-12.74 11.87,-12.74 h 13.64 c 7.45,0 11.89,4.76 11.89,12.74 V 49.44999 h -0.31 a 12.78,12.78 0 0 0 -12.4,-9.84 h -12 a 12.78,12.78 0 0 0 -12.54,10.48 h -0.17 z m 32.43,15.910004 -1.94,4.26 a 12.69,12.69 0 0 0 -5.8,-1.41 h -12 a 12.69,12.69 0 0 0 -5.81,1.4 l -1.94,-4.26 a 7.78,7.78 0 0 1 7.75,-7.25 h 12 a 7.78,7.78 0 0 1 7.74,7.26 z m -18.87,47.63 a 13.74,13.74 0 0 1 -5,-1 6.52,6.52 0 0 1 -3.59,-5 l 1.88,-3.63 a 13.8,13.8 0 0 0 5.84,1.29 h 12 a 13.81,13.81 0 0 0 5.86,-1.3 l 1.88,3.63 a 6.52,6.52 0 0 1 -3.59,5 13.74,13.74 0 0 1 -5,1 z m 23.84,-11.9 a 9.42,9.42 0 0 1 -0.65,3.39 l -3,-5.81 a 2.5,2.5 0 0 0 -3.77,-0.81 8.53,8.53 0 0 1 -5.29,1.79 h -12 a 8.54,8.54 0 0 1 -5.3,-1.79 2.5,2.5 0 0 0 -3.78,0.81 l -3,5.81 a 9.42,9.42 0 0 1 -0.65,-3.39 v -32.51 h 0.95 l 2.65,5.81 a 2.5,2.5 0 0 0 3.95,0.82 7.73,7.73 0 0 1 5.18,-2 h 12 a 7.74,7.74 0 0 1 5.18,2 2.5,2.5 0 0 0 3.95,-0.82 l 2.94,-6.45 h 0.65 z"
     id="path8-4"
     inkscape:connector-curvature="0"
     style="opacity:1;vector-effect:none;fill:#000000;fill-opacity:1;stroke-width:1;stroke-linecap:butt;stroke-linejoin:miter;stroke-miterlimit:4;stroke-dasharray:none;stroke-dashoffset:0;stroke-opacity:1" />
  <path
     d="m 197.5378,18.390003 a 2.5,2.5 0 0 1 1.34,4.610003 l -6.89,4.37 a 2.5,2.5 0 1 1 -2.68,-4.22 l 6.89,-4.370003 a 2.49,2.49 0 0 1 1.34,-0.39 z"
     id="path10-2"
     inkscape:connector-curvature="0" />
  <path
     d="m 190.8978,10.500003 a 2.5,2.5 0 0 1 1.84,4.19 l -5.52,6 a 2.5,2.5 0 1 1 -3.68,-3.38 l 5.52,-6 a 2.49,2.49 0 0 1 1.84,-0.81 z"
     id="path12-1"
     inkscape:connector-curvature="0" />
  <path
     d="m 182.4378,4.500003 a 2.5,2.5 0 0 1 2.21,3.66 l -3.78,7.23 a 2.500365,2.500365 0 0 1 -4.43,-2.32 l 3.78,-7.23 a 2.5,2.5 0 0 1 2.22,-1.34 z"
     id="path14-2"
     inkscape:connector-curvature="0" />
  <path
     d="m 124.5978,18.390003 a 2.49,2.49 0 0 1 1.34,0.39 l 6.89,4.370003 a 2.5,2.5 0 1 1 -2.68,4.22 l -6.89,-4.37 a 2.5,2.5 0 0 1 1.34,-4.610003 z"
     id="path16-7"
     inkscape:connector-curvature="0" />
  <path
     d="m 131.2378,10.500003 a 2.49,2.49 0 0 1 1.83,0.76 l 5.52,6 a 2.5,2.5 0 1 1 -3.68,3.38 l -5.52,-6 a 2.5,2.5 0 0 1 1.85,-4.14 z"
     id="path18-4"
     inkscape:connector-curvature="0" />
  <path
     d="m 139.6978,4.500003 a 2.5,2.5 0 0 1 2.22,1.34 l 3.78,7.23 a 2.5003654,2.5003654 0 0 1 -4.43,2.32 l -3.78,-7.23 a 2.5,2.5 0 0 1 2.21,-3.66 z"
     id="path20-6"
     inkscape:connector-curvature="0" />
</svg>
